<svg width="100" height="100" viewBox="0 0 100 100" fill="none" xmlns="http://www.w3.org/2000/svg">
<rect width="100" height="100" fill="#00FFE0" fill-opacity="0.31"/>
<path d="M29.6932 27.3258C29.5834 27.2339 29.4395 27.1935 29.298 27.2148C29.1564 27.2361 29.0307 27.317 28.9528 27.4371L28.4418 28.225L28.8612 28.4971L27.8392 30.0727L27.4197 29.8006L26.3976 31.3763L26.8171 31.6484L25.795 33.224L25.3755 32.9519L24.3535 34.5276L24.7729 34.7997L23.7509 36.3754L23.3314 36.1033L22.3093 37.6789L22.7288 37.951L21.7067 39.5267L21.2872 39.2546L20.7762 40.0424C20.6691 40.2074 20.6688 40.4199 20.7753 40.5853C20.8819 40.7507 21.0755 40.8382 21.27 40.809L22.2549 40.6609L22.1805 40.1665L24.1503 39.8704L24.2246 40.3649L26.1943 40.0688L26.12 39.5744L28.0897 39.2783L28.1641 39.7728L30.1338 39.4767L30.0595 38.9823L32.0292 38.6862L32.1035 39.1807L34.0733 38.8846L33.9989 38.3902L35.9687 38.0942L36.043 38.5886L38.0127 38.2925L37.9384 37.7981L39.9082 37.5021L39.9825 37.9965L40.9673 37.8485C41.1619 37.8192 41.3212 37.6787 41.3744 37.4893C41.4276 37.2999 41.3648 37.0969 41.214 36.9706L40.4939 36.3678L40.173 36.7512L38.7329 35.5456L39.0538 35.1622L37.6137 33.9566L37.2928 34.34L35.8527 33.1344L36.1737 32.751L34.7336 31.5454L34.4126 31.9288L32.9725 30.7232L33.2935 30.3398L31.8534 29.1342L31.5324 29.5176L30.0923 28.312L30.4133 27.9286L29.6932 27.3258Z" fill="#FF7D7D" stroke="black" stroke-linejoin="round" stroke-dasharray="2 2"/>
<circle cx="77.5" cy="14.5" r="3" fill="#697EEE" stroke="black"/>
<circle cx="24" cy="67" r="5.5" fill="#B77769" stroke="black" stroke-linejoin="bevel" stroke-dasharray="2 2"/>
<circle cx="84.5" cy="57.5" r="3" fill="#9BA370" stroke="black" stroke-dasharray="2 2"/>
<circle cx="64.5" cy="44.5" r="3" fill="#53BF7E" stroke="black"/>
<circle cx="79" cy="84" r="4.5" fill="#DD6481" stroke="black"/>
</svg>
