<svg width="70" height="78" viewBox="0 0 70 78" fill="none" xmlns="http://www.w3.org/2000/svg">
<path d="M11.6932 16.3258C11.5834 16.2339 11.4395 16.1935 11.298 16.2148C11.1564 16.2361 11.0307 16.317 10.9528 16.4371L10.4418 17.225L10.8612 17.4971L9.83916 19.0727L9.41968 18.8006L8.39761 20.3763L8.81708 20.6484L7.79501 22.224L7.37553 21.9519L6.35346 23.5276L6.77293 23.7997L5.75086 25.3754L5.33138 25.1033L4.30931 26.6789L4.72878 26.951L3.70671 28.5267L3.28723 28.2546L2.77619 29.0424C2.66914 29.2074 2.66881 29.4199 2.77533 29.5853C2.88186 29.7507 3.07546 29.8382 3.26999 29.809L4.25485 29.6609L4.18054 29.1665L6.15027 28.8704L6.22459 29.3649L8.19432 29.0688L8.12001 28.5744L10.0897 28.2783L10.1641 28.7728L12.1338 28.4767L12.0595 27.9823L14.0292 27.6862L14.1035 28.1807L16.0733 27.8846L15.9989 27.3902L17.9687 27.0942L18.043 27.5886L20.0127 27.2925L19.9384 26.7981L21.9082 26.5021L21.9825 26.9965L22.9673 26.8485C23.1619 26.8192 23.3212 26.6787 23.3744 26.4893C23.4276 26.2999 23.3648 26.0969 23.214 25.9706L22.4939 25.3678L22.173 25.7512L20.7329 24.5456L21.0538 24.1622L19.6137 22.9566L19.2928 23.34L17.8527 22.1344L18.1737 21.751L16.7336 20.5454L16.4126 20.9288L14.9725 19.7232L15.2935 19.3398L13.8534 18.1342L13.5324 18.5176L12.0923 17.312L12.4133 16.9286L11.6932 16.3258Z" fill="#FF7D7D" stroke="black" stroke-linejoin="round" stroke-dasharray="2 2"/>
<circle cx="59.5" cy="3.5" r="3" fill="#697EEE" stroke="black"/>
<circle cx="6" cy="56" r="5.5" fill="#B77769" stroke="black" stroke-linejoin="bevel" stroke-dasharray="2 2"/>
<circle cx="66.5" cy="46.5" r="3" fill="#9BA370" stroke="black" stroke-dasharray="2 2"/>
<circle cx="46.5" cy="33.5" r="3" fill="#53BF7E" stroke="black"/>
<circle cx="61" cy="73" r="4.5" fill="#DD6481" stroke="black"/>
</svg>
