<svg width="89" height="85" viewBox="0 0 89 85" fill="none" xmlns="http://www.w3.org/2000/svg">
<g filter="url(#filter0_d_2_9)">
<path d="M12.0829 7.36117L12.1683 7.75532H12.5716H16.52L13.1745 11.4013L12.9994 11.5921L13.0542 11.8452L14.2351 17.2968L11.3684 14.1726L11 13.7711L10.6316 14.1726L7.76489 17.2968L8.94577 11.8452L9.00059 11.5921L8.82551 11.4013L5.47999 7.75532H9.4284H9.83169L9.91707 7.36117L11 2.36179L12.0829 7.36117Z" fill="#FFB547" fill-opacity="0.88" stroke="black"/>
<path d="M15.4137 48.1563L15.6554 48.4791L16.0221 48.3112L19.6121 46.6674L18.0881 51.3752L18.0084 51.6216L18.1636 51.8289L21.5068 56.294L17.5997 54.6468L17.0976 54.4352L16.9298 54.9536L15.6239 58.9876L14.4281 53.5393L14.3726 53.2864L14.1339 53.1858L9.57426 51.2635L13.1642 49.6198L13.5309 49.4519L13.4445 49.0579L12.3478 44.0616L15.4137 48.1563Z" fill="#FFB547" fill-opacity="0.88" stroke="black"/>
<path d="M76.9158 61.4915L76.7754 61.8778L77.1271 62.0903L81.4975 64.7309L75.1408 66.9166L74.9151 66.9943L74.8335 67.2186L72.1315 74.6501L71.2439 68.8793L71.1529 68.2879L70.5871 68.4824L65.0656 70.381L70.3875 64.5324L70.5481 64.3558L70.5118 64.1198L69.49 57.4759L73.8604 60.1165L74.2122 60.3291L74.4888 60.0251L79.419 54.6068L76.9158 61.4915Z" fill="#FFB547" fill-opacity="0.88" stroke="black"/>
<path d="M60.0868 16.3414L60.1822 16.7188H60.5716H64.3897L61.2016 19.6969L60.9858 19.8985L61.0581 20.1848L62.2131 24.7549L59.3413 22.0723L59 21.7535L58.6587 22.0723L55.7869 24.7549L56.9419 20.1848L57.0142 19.8985L56.7984 19.6969L53.6103 16.7188H57.4284H57.8178L57.9132 16.3414L59 12.0407L60.0868 16.3414Z" fill="#FFB547" fill-opacity="0.88" stroke="black"/>
</g>
<defs>
<filter id="filter0_d_2_9" x="0.34259" y="0" width="86.3289" height="84.6562" filterUnits="userSpaceOnUse" color-interpolation-filters="sRGB">
<feFlood flood-opacity="0" result="BackgroundImageFix"/>
<feColorMatrix in="SourceAlpha" type="matrix" values="0 0 0 0 0 0 0 0 0 0 0 0 0 0 0 0 0 0 127 0" result="hardAlpha"/>
<feOffset dy="4"/>
<feGaussianBlur stdDeviation="2"/>
<feComposite in2="hardAlpha" operator="out"/>
<feColorMatrix type="matrix" values="0 0 0 0 0 0 0 0 0 0 0 0 0 0 0 0 0 0 0.25 0"/>
<feBlend mode="normal" in2="BackgroundImageFix" result="effect1_dropShadow_2_9"/>
<feBlend mode="normal" in="SourceGraphic" in2="effect1_dropShadow_2_9" result="shape"/>
</filter>
</defs>
</svg>
