<svg width="85" height="81" viewBox="0 0 85 81" fill="none" xmlns="http://www.w3.org/2000/svg">
<path d="M7 0L8.5716 7.25532H13.6574L9.5429 11.7394L11.1145 18.9947L7 14.5106L2.8855 18.9947L4.4571 11.7394L0.342604 7.25532H5.4284L7 0Z" fill="#FFB547" fill-opacity="0.88"/>
<path d="M7.36456 41.9142L11.814 47.8566L16.4381 45.7393L14.5638 51.5292L19.0132 57.4717L13.4055 55.1076L11.5312 60.8975L9.93971 53.6465L4.33197 51.2824L8.95609 49.1651L7.36456 41.9142Z" fill="#FFB547" fill-opacity="0.88"/>
<path d="M76.755 52.3957L73.3857 61.6623L78.6714 64.856L71.3034 67.3895L67.9341 76.6562L66.7497 68.9553L59.3816 71.4888L66.0177 64.1958L64.8332 56.4949L70.1189 59.6886L76.755 52.3957Z" fill="#FFB547" fill-opacity="0.88"/>
<path d="M55 10L56.5716 16.2188H61.6574L57.5429 20.0623L59.1145 26.2812L55 22.4377L50.8855 26.2812L52.4571 20.0623L48.3426 16.2188H53.4284L55 10Z" fill="#FFB547" fill-opacity="0.88"/>
</svg>
